<svg 
 xmlns="http://www.w3.org/2000/svg"
 xmlns:xlink="http://www.w3.org/1999/xlink"
 width="43px" height="37px">
 <g>
<path fill-rule="evenodd"  fill="rgb(53, 57, 86)"
 d="M42.462,36.848 C41.988,37.096 41.509,37.043 41.138,36.656 C39.521,34.974 37.908,33.290 36.293,31.606 C35.765,31.055 35.249,30.492 34.700,29.963 C34.556,29.823 34.309,29.716 34.110,29.715 C28.173,29.702 22.237,29.705 16.300,29.705 C15.243,29.705 14.186,29.706 13.129,29.704 C12.345,29.702 12.037,29.393 12.036,28.604 C12.035,26.168 12.036,23.732 12.036,21.296 C12.036,21.127 12.036,20.958 12.036,20.733 C11.209,20.733 10.413,20.792 9.630,20.717 C8.814,20.638 8.271,20.935 7.723,21.512 C5.798,23.536 3.822,25.512 1.855,27.497 C1.658,27.696 1.415,27.876 1.159,27.989 C0.625,28.223 0.136,27.943 0.036,27.374 C0.001,27.178 0.001,26.975 0.001,26.775 C0.000,18.235 0.000,9.695 0.001,1.156 C0.001,0.274 0.277,-0.000 1.164,-0.000 C10.648,-0.000 20.132,0.001 29.616,0.001 C29.717,0.001 29.819,-0.000 29.920,0.002 C30.656,0.021 30.961,0.326 30.962,1.069 C30.965,3.160 30.962,5.252 30.962,7.345 C30.962,7.872 30.962,8.400 30.962,8.981 C31.401,8.981 31.776,8.981 32.151,8.981 C35.394,8.981 38.637,8.981 41.881,8.982 C42.705,8.982 42.998,9.272 42.998,10.099 C42.999,18.639 42.999,27.179 43.000,35.719 C43.000,36.181 42.936,36.600 42.462,36.848 ZM29.294,2.372 C29.294,2.205 29.294,2.038 29.294,1.861 C20.122,1.861 11.009,1.861 1.898,1.861 C1.898,9.473 1.898,17.061 1.898,24.720 C3.743,22.891 5.541,21.125 7.317,19.339 C7.650,19.004 7.996,18.871 8.464,18.872 C15.109,18.879 21.754,18.873 28.398,18.870 C28.612,18.870 28.826,18.870 29.061,18.870 C29.078,18.758 29.089,18.715 29.090,18.673 C29.206,15.375 28.968,12.076 29.259,8.772 C29.446,6.654 29.294,4.506 29.294,2.372 ZM41.290,10.843 C37.894,10.843 34.531,10.843 31.142,10.843 C31.142,11.032 31.142,11.189 31.142,11.346 C31.142,14.039 31.142,16.732 31.142,19.425 C31.142,20.479 30.870,20.752 29.817,20.752 C24.693,20.753 19.568,20.753 14.444,20.753 C14.275,20.753 14.106,20.753 13.928,20.753 C13.928,23.151 13.928,25.494 13.928,27.865 C14.079,27.873 14.205,27.886 14.332,27.886 C15.476,27.888 16.619,27.887 17.763,27.888 C23.379,27.888 28.996,27.889 34.613,27.888 C35.155,27.888 35.603,28.053 36.000,28.453 C37.633,30.099 39.290,31.721 40.938,33.351 C41.042,33.454 41.152,33.551 41.290,33.680 C41.290,26.017 41.290,18.433 41.290,10.843 ZM7.615,7.005 C12.789,7.005 17.945,7.005 23.130,7.005 C23.130,7.593 23.130,8.172 23.130,8.778 C17.965,8.778 12.808,8.778 7.615,8.778 C7.615,8.172 7.615,7.603 7.615,7.005 ZM15.357,13.721 C12.786,13.721 10.219,13.721 7.610,13.721 C7.610,13.116 7.610,12.545 7.610,11.942 C10.189,11.942 12.756,11.942 15.357,11.942 C15.357,12.524 15.357,13.104 15.357,13.721 Z"/>
 </g>
</svg>