<svg 
 xmlns="http://www.w3.org/2000/svg"
 xmlns:xlink="http://www.w3.org/1999/xlink"
 width="40px" height="37px">
 <g>
<path fill-rule="evenodd"  fill="rgb(59, 63, 91)"
 d="M19.613,27.681 C19.987,29.877 20.347,31.996 20.730,34.245 C21.058,33.635 21.334,33.122 21.609,32.608 C21.738,32.367 21.852,32.118 21.995,31.885 C22.292,31.402 22.829,31.251 23.299,31.502 C23.763,31.750 23.958,32.305 23.707,32.796 C23.126,33.932 22.533,35.062 21.921,36.182 C21.629,36.715 20.815,37.085 20.285,36.982 C19.652,36.858 19.077,36.221 18.965,35.562 C18.425,32.390 17.876,29.219 17.332,26.048 C17.269,25.683 17.356,25.373 17.605,25.081 C21.310,20.737 25.008,16.387 28.707,12.039 C29.821,10.729 30.928,9.411 32.056,8.113 C32.236,7.907 32.492,7.711 32.748,7.640 C33.161,7.526 33.529,7.692 33.763,8.075 C33.981,8.432 33.933,8.901 33.630,9.260 C32.746,10.307 31.854,11.347 30.966,12.391 C27.307,16.693 23.649,20.997 19.990,25.300 C19.942,25.357 19.903,25.422 19.820,25.539 C24.837,28.425 29.838,31.302 34.917,34.223 C35.967,23.451 37.012,12.736 38.065,1.926 C26.027,8.523 14.046,15.089 1.937,21.724 C3.129,21.940 4.178,22.135 5.228,22.322 C8.459,22.901 11.690,23.474 14.920,24.055 C15.594,24.176 15.956,24.651 15.837,25.227 C15.726,25.767 15.203,26.078 14.563,25.965 C13.485,25.776 12.410,25.573 11.333,25.381 C8.177,24.818 5.021,24.253 1.863,23.700 C0.940,23.538 0.157,22.874 0.024,22.094 C-0.120,21.243 0.339,20.379 1.191,19.912 C13.095,13.387 25.000,6.863 36.903,0.337 C37.640,-0.068 38.398,-0.143 39.110,0.308 C39.813,0.751 40.063,1.467 39.987,2.283 C39.829,3.979 39.663,5.673 39.497,7.368 C39.328,9.093 39.155,10.817 38.985,12.543 C38.782,14.615 38.578,16.688 38.377,18.761 C38.180,20.789 37.991,22.817 37.793,24.845 C37.594,26.887 37.387,28.930 37.186,30.972 C37.082,32.031 36.959,33.089 36.886,34.151 C36.773,35.809 35.247,36.657 33.799,35.826 C29.276,33.231 24.758,30.627 20.237,28.027 C20.056,27.923 19.872,27.824 19.613,27.681 Z"/>
 </g>
</svg>