<svg 
 xmlns="http://www.w3.org/2000/svg"
 xmlns:xlink="http://www.w3.org/1999/xlink"
 width="30px" height="51px">
 <g>
<path fill-rule="evenodd"  fill="rgb(53, 57, 86)"
 d="M27.569,24.207 C24.947,28.421 22.329,32.636 19.710,36.852 C19.605,37.020 19.507,37.192 19.373,37.419 C20.176,37.576 20.940,37.708 21.696,37.875 C23.755,38.330 25.731,39.001 27.492,40.199 C28.315,40.759 29.033,41.430 29.525,42.312 C30.376,43.840 30.064,45.594 28.696,46.952 C27.132,48.504 25.175,49.340 23.106,49.926 C19.100,51.060 15.022,51.243 10.901,50.733 C8.370,50.420 5.909,49.849 3.650,48.628 C2.903,48.224 2.174,47.737 1.549,47.164 C-0.613,45.184 -0.489,42.587 1.790,40.716 C3.675,39.169 5.907,38.417 8.232,37.879 C8.918,37.721 9.614,37.610 10.374,37.464 C10.223,37.203 10.101,36.986 9.974,36.772 C7.316,32.305 4.593,27.874 2.011,23.362 C-3.089,14.453 2.148,3.194 12.234,1.264 C20.387,-0.295 28.318,5.177 29.759,13.366 C30.445,17.262 29.647,20.865 27.569,24.207 ZM6.918,39.987 C5.265,40.464 3.675,41.125 2.446,42.407 C1.410,43.488 1.411,44.609 2.424,45.701 C3.328,46.676 4.475,47.271 5.688,47.747 C8.668,48.919 11.784,49.307 15.522,49.309 C17.328,49.334 19.664,49.090 21.958,48.508 C23.699,48.066 25.378,47.465 26.837,46.379 C28.809,44.912 28.813,43.274 26.864,41.803 C26.834,41.781 26.807,41.757 26.777,41.736 C24.311,40.050 21.500,39.418 18.598,39.084 C18.452,39.067 18.223,39.263 18.124,39.418 C17.291,40.725 16.480,42.048 15.659,43.364 C15.084,44.285 14.455,44.273 13.890,43.331 C13.111,42.032 12.327,40.736 11.567,39.427 C11.404,39.146 11.228,39.031 10.914,39.100 C9.581,39.394 8.226,39.610 6.918,39.987 ZM28.118,13.643 C26.909,6.470 19.760,1.521 12.559,2.908 C3.520,4.649 -1.094,14.736 3.540,22.680 C5.774,26.509 8.069,30.301 10.338,34.109 C11.804,36.568 13.273,39.026 14.781,41.551 C14.893,41.398 14.962,41.315 15.018,41.224 C18.718,35.274 22.414,29.322 26.115,23.373 C27.981,20.375 28.711,17.159 28.118,13.643 ZM14.985,21.434 C11.968,21.428 9.565,19.018 9.566,15.998 C9.567,12.965 11.997,10.553 15.043,10.561 C18.035,10.570 20.442,13.011 20.433,16.029 C20.424,19.042 18.007,21.440 14.985,21.434 ZM15.009,12.216 C12.939,12.211 11.210,13.946 11.220,16.019 C11.229,18.072 12.937,19.775 14.991,19.778 C17.051,19.781 18.764,18.088 18.779,16.036 C18.795,13.959 17.080,12.221 15.009,12.216 Z"/>
 </g>
</svg>